<?xml version="1.0" standalone="no"?>
<!DOCTYPE svg PUBLIC "-//W3C//DTD SVG 20010904//EN"
 "http://www.w3.org/TR/2001/REC-SVG-20010904/DTD/svg10.dtd">
<svg version="1.0" xmlns="http://www.w3.org/2000/svg"
 width="16.000000pt" height="16.000000pt" viewBox="0 0 16.000000 16.000000"
 preserveAspectRatio="xMidYMid meet">
<metadata>
Created by potrace 1.11, written by Peter Selinger 2001-2013
</metadata>
<g transform="translate(0.000000,16.000000) scale(0.004103,-0.004103)"
fill="#000000" stroke="none">
<path d="M9 3269 c-9 -5 -10 -9 -2 -9 9 0 180 -286 311 -520 14 -25 45 -78 69
-118 24 -41 43 -77 43 -80 1 -4 11 -20 24 -35 l23 -28 62 36 c43 26 59 40 53
48 -5 7 -20 32 -34 57 -14 25 -84 147 -156 272 -73 125 -132 229 -132 230 0 2
143 3 318 3 174 -1 324 1 333 3 14 3 17 16 15 75 l-1 72 -456 1 c-251 1 -462
-2 -470 -7z"/>
<path d="M1294 3260 c-141 -38 -221 -143 -249 -325 -12 -84 -5 -242 16 -350 5
-27 11 -59 13 -70 2 -11 7 -31 11 -45 6 -24 2 -27 -82 -54 -296 -96 -490 -252
-529 -426 -11 -50 -10 -58 11 -120 24 -71 52 -114 111 -171 92 -87 241 -168
412 -224 71 -23 82 -30 77 -46 -4 -10 -8 -31 -11 -46 -2 -16 -7 -39 -9 -53 -3
-14 -8 -36 -10 -50 -14 -69 -20 -271 -10 -320 3 -14 8 -41 11 -60 10 -58 59
-153 100 -192 41 -39 108 -73 161 -81 17 -3 37 -8 42 -12 6 -3 11 -2 11 2 0 5
16 10 36 11 41 3 139 35 199 65 66 33 205 132 278 198 l68 62 42 -40 c151
-143 327 -249 462 -278 33 -7 65 -14 70 -16 17 -5 114 20 154 40 41 21 101 83
124 128 16 30 42 117 52 168 11 61 5 239 -11 325 -2 14 -7 41 -10 60 -3 19 -9
50 -14 69 -10 37 -8 44 14 47 35 5 199 71 276 110 183 95 285 202 316 335 10
45 10 56 -5 109 -48 167 -234 311 -526 406 -82 27 -86 30 -80 54 9 34 15 60
20 90 2 14 7 40 10 58 38 207 8 429 -70 530 -46 60 -77 81 -152 107 -60 20
-71 21 -132 9 -88 -16 -113 -25 -196 -67 -66 -33 -218 -135 -240 -160 -5 -7
-32 -31 -58 -54 l-48 -42 -41 37 c-22 20 -50 46 -62 58 -40 38 -181 132 -253
168 -64 32 -154 60 -218 70 -12 1 -48 -5 -81 -14z m207 -151 c85 -35 207 -119
323 -223 l38 -34 -64 -74 c-49 -56 -176 -219 -183 -235 -2 -3 -129 -21 -190
-27 -22 -3 -40 -5 -40 -6 0 -2 -26 -7 -131 -25 l-41 -7 -11 48 c-68 301 -39
532 76 594 48 26 146 21 223 -11z m1133 6 c33 -22 70 -85 86 -144 14 -52 19
-210 9 -266 -4 -22 -10 -62 -14 -90 -3 -27 -11 -69 -17 -93 -11 -46 -12 -46
-108 -27 -14 3 -41 8 -60 10 -19 3 -44 8 -55 10 -11 2 -47 7 -80 10 -70 7
-107 13 -109 17 -14 25 -135 180 -184 236 l-64 73 44 40 c122 112 272 208 367
235 58 17 151 11 185 -11z m-574 -485 c3 -3 18 -22 34 -42 l27 -37 -170 0
c-94 1 -171 2 -171 5 0 4 16 24 108 131 l63 73 52 -62 c28 -35 54 -65 57 -68z
m145 -213 c23 -5 142 -191 229 -359 l59 -113 -58 -110 c-58 -109 -144 -256
-191 -324 -28 -42 -15 -40 -294 -41 -251 0 -266 1 -285 26 -31 43 -156 256
-205 350 l-52 100 41 81 c45 91 123 225 187 325 40 61 46 66 79 66 20 0 38 2
40 4 6 5 424 1 450 -5z m-692 -23 c-7 -3 -13 -9 -13 -14 0 -5 -22 -44 -48 -87
-26 -43 -61 -104 -77 -135 -17 -32 -33 -54 -36 -50 -8 9 -76 190 -84 223 -6
24 -3 27 32 32 21 3 49 8 63 11 13 3 42 8 65 12 22 3 41 7 42 8 1 1 17 2 35 3
18 1 27 -1 21 -3z m972 -9 c22 -3 63 -11 90 -16 28 -5 56 -10 63 -11 6 -1 12
-5 12 -9 0 -11 -77 -226 -86 -240 -3 -6 -30 31 -58 83 -29 51 -67 117 -84 146
-18 29 -32 55 -32 58 0 2 12 2 28 0 15 -3 45 -8 67 -11z m-1346 -107 c18 -60
112 -300 124 -315 6 -9 2 -27 -12 -59 -33 -69 -81 -192 -102 -261 -11 -34 -23
-64 -27 -67 -4 -2 -43 8 -87 24 -331 113 -490 274 -417 423 18 35 110 128 148
147 16 8 31 17 34 20 10 10 105 54 113 52 4 -1 7 2 7 7 0 5 10 11 23 14 12 3
54 17 92 31 39 13 75 25 81 25 6 1 16 -18 23 -41z m1713 21 c203 -69 345 -155
411 -249 107 -153 -42 -327 -381 -444 l-102 -35 -15 36 c-9 20 -18 48 -22 62
-3 14 -30 83 -58 152 l-52 127 28 66 c15 36 44 110 64 164 45 121 53 142 60
142 3 0 33 -10 67 -21z m-1487 -546 c11 -21 48 -86 82 -145 35 -59 63 -110 63
-113 0 -4 -8 -4 -17 -1 -10 3 -36 7 -58 11 -94 13 -162 27 -174 34 -10 6 -3
36 31 130 23 66 45 121 48 121 3 0 14 -17 25 -37z m1212 5 c6 -18 25 -73 43
-121 17 -49 30 -91 27 -93 -7 -7 -112 -31 -167 -38 -25 -3 -55 -8 -67 -10 -13
-3 -23 -2 -23 1 0 3 22 42 49 87 26 44 64 109 82 143 19 35 37 63 40 63 3 0
10 -15 16 -32z m-1257 -363 c19 -3 60 -10 90 -15 30 -5 78 -11 105 -15 93 -10
98 -13 152 -88 57 -77 96 -126 156 -191 20 -22 37 -43 37 -46 -1 -8 -172 -149
-210 -173 -19 -11 -37 -24 -40 -27 -12 -12 -73 -42 -132 -64 -122 -45 -219
-21 -268 66 -47 84 -57 270 -24 446 9 48 17 92 18 97 4 27 17 33 49 25 17 -5
48 -12 67 -15z m1375 -10 c8 -38 22 -109 30 -158 13 -76 11 -223 -3 -287 -39
-176 -145 -228 -321 -156 -80 32 -207 117 -293 196 l-68 61 78 92 c42 51 97
120 122 155 50 69 49 68 140 77 36 4 74 9 85 11 11 2 38 7 60 10 22 3 67 11
100 18 33 7 61 12 62 12 1 -1 5 -15 8 -31z m-750 -45 c39 0 94 1 123 3 28 1
52 0 52 -2 0 -7 -151 -190 -163 -198 -5 -3 -21 7 -35 23 -13 16 -36 43 -51 59
-35 40 -91 112 -91 117 0 2 21 3 48 1 26 -1 79 -2 117 -3z"/>
<path d="M1880 2206 c-143 -46 -217 -167 -191 -311 26 -142 181 -248 311 -212
8 3 30 8 48 12 35 8 120 85 139 125 23 49 27 66 29 119 5 143 -106 266 -249
275 -29 2 -68 -2 -87 -8z"/>
<path d="M3363 1378 c-29 -16 -53 -34 -53 -39 0 -5 42 -82 94 -172 51 -89 119
-207 151 -262 31 -55 61 -104 66 -109 5 -6 9 -14 9 -18 0 -4 -148 -8 -329 -8
-254 0 -330 -3 -333 -12 -2 -7 -4 -42 -4 -78 l1 -65 460 -1 c253 -1 464 1 469
4 5 3 3 10 -5 16 -8 6 -23 27 -34 47 -134 240 -422 729 -430 728 -5 0 -34 -14
-62 -31z"/>
</g>
</svg>
